<?xml version="1.0" standalone="no"?>
<!DOCTYPE svg PUBLIC "-//W3C//DTD SVG 20010904//EN"
 "http://www.w3.org/TR/2001/REC-SVG-20010904/DTD/svg10.dtd">
<svg version="1.0" xmlns="http://www.w3.org/2000/svg"
 width="768.000000pt" height="768.000000pt" viewBox="0 0 768.000000 768.000000"
 preserveAspectRatio="xMidYMid meet">
<metadata>
Created by potrace 1.14, written by Peter Selinger 2001-2017
</metadata>
<g transform="translate(0.000000,768.000000) scale(0.100000,-0.100000)"
fill="#000000" stroke="none">
<path d="M0 7643 c0 -24 3 -33 9 -25 7 12 4 62 -5 62 -2 0 -4 -17 -4 -37z"/>
<path d="M911 7656 c-27 -29 -116 -62 -189 -71 -43 -6 -57 -4 -73 11 -17 15
-21 16 -33 3 -7 -8 -18 -33 -25 -56 -7 -27 -22 -50 -42 -64 -31 -22 -32 -22
-81 -4 -104 37 -234 -1 -362 -107 -32 -28 -70 -55 -83 -61 l-23 -10 0 -284 0
-283 25 5 c14 3 36 7 50 10 14 3 25 10 25 16 0 6 -7 8 -16 5 -13 -5 -46 6 -63
20 -1 1 6 13 18 25 19 21 27 49 21 74 -1 6 -2 47 -1 93 1 60 7 96 23 130 22
50 33 76 42 105 3 9 14 17 24 17 11 0 26 14 37 34 12 22 33 41 59 52 23 10 49
26 59 36 13 13 26 16 45 12 37 -9 38 -12 16 -29 -14 -11 -15 -15 -4 -14 8 1
28 -3 43 -9 16 -7 37 -12 47 -12 46 0 50 -8 50 -105 0 -71 -5 -104 -21 -141
-34 -81 -36 -87 -49 -131 -9 -30 -21 -46 -41 -55 -15 -7 -25 -16 -22 -21 7
-12 -18 -57 -32 -57 -6 0 -21 -10 -33 -22 -11 -13 -28 -29 -36 -36 -18 -14
-21 -59 -6 -82 9 -15 4 -17 112 35 32 15 64 25 72 22 8 -3 16 -3 18 1 6 14
106 92 118 92 7 0 38 16 70 35 32 19 63 35 69 35 7 0 22 7 36 16 13 8 50 18
82 21 32 3 63 9 69 14 6 5 20 2 34 -8 12 -9 37 -16 55 -15 27 1 34 -4 47 -35
12 -26 14 -42 7 -60 -5 -14 -14 -46 -20 -72 -6 -25 -18 -55 -28 -66 -10 -11
-18 -27 -18 -36 0 -18 -62 -109 -74 -109 -4 0 -21 -12 -38 -26 -17 -14 -37
-27 -43 -28 -7 -1 -24 -8 -37 -15 -13 -7 -70 -15 -134 -17 -83 -3 -115 -8
-128 -20 -10 -9 -22 -13 -27 -10 -5 3 -24 8 -43 11 -18 3 -36 9 -39 13 -7 10
-67 29 -115 38 -22 4 -43 12 -47 18 -4 6 -33 12 -65 13 -32 0 -88 4 -126 8
-63 7 -67 7 -67 -13 0 -14 10 -24 33 -32 l32 -12 -33 -16 -32 -16 2 -280 c3
-242 5 -281 18 -281 8 0 15 -7 15 -15 0 -8 -7 -15 -15 -15 -10 0 -16 -12 -18
-38 -3 -39 5 -52 61 -90 18 -12 20 -19 11 -34 -6 -10 -21 -19 -33 -21 -18 -3
-21 2 -21 27 0 17 -4 31 -9 31 -4 0 -9 -75 -10 -167 l-1 -167 52 50 c84 81 96
90 160 124 36 19 90 37 138 46 138 24 195 -8 271 -152 16 -31 29 -62 29 -69 0
-8 11 -35 25 -61 20 -38 25 -61 25 -123 0 -86 -22 -203 -45 -237 -8 -13 -15
-32 -15 -43 0 -11 -9 -25 -19 -31 -11 -5 -23 -20 -27 -32 -20 -64 -151 -228
-182 -228 -5 0 -33 -18 -62 -40 -53 -40 -86 -51 -77 -27 2 6 10 11 16 9 17 -3
13 23 -9 51 -11 14 -20 30 -20 36 0 6 -12 18 -28 28 -15 9 -35 23 -45 32 -9 8
-41 23 -69 33 -46 16 -53 16 -68 3 -9 -8 -24 -15 -33 -15 -15 0 -17 -18 -17
-168 0 -168 0 -169 24 -180 31 -14 31 -57 0 -98 l-24 -31 0 -311 c0 -172 3
-312 7 -312 5 0 43 37 85 81 77 82 77 82 102 65 14 -9 32 -16 39 -16 8 0 22
-9 32 -20 10 -11 25 -20 33 -20 7 0 26 -8 40 -17 60 -40 74 -47 187 -98 98
-44 146 -61 343 -121 l92 -28 -21 -22 c-48 -51 -230 -131 -321 -141 -32 -3
-58 -9 -58 -12 0 -12 95 -51 123 -51 16 0 48 -14 73 -31 65 -44 136 -73 248
-100 85 -21 100 -27 108 -49 6 -17 6 -30 -1 -40 -6 -8 -20 -31 -31 -52 -16
-30 -17 -38 -6 -47 11 -10 17 -4 28 31 l15 43 27 -47 c15 -25 31 -70 36 -99 4
-30 13 -74 19 -99 17 -74 14 -108 -14 -133 -79 -71 -77 -70 -242 -150 -54 -26
-110 -54 -125 -62 -35 -20 -97 -20 -104 0 -5 12 -10 13 -20 4 -8 -6 -14 -17
-14 -23 0 -21 -117 -86 -178 -97 -43 -9 -102 -43 -102 -59 0 -5 21 -20 48 -33
48 -24 75 -58 65 -84 -3 -8 -8 -11 -11 -8 -8 7 -102 -157 -96 -167 10 -16 20
-7 48 45 17 28 36 58 43 65 7 7 13 21 13 31 0 45 88 75 152 51 35 -13 120 -30
288 -55 198 -30 238 -47 183 -78 -42 -24 -128 -85 -146 -104 -9 -11 -15 -27
-11 -36 6 -15 53 -37 81 -37 8 0 59 -22 114 -50 67 -34 137 -59 218 -79 66
-17 135 -38 152 -47 18 -9 53 -19 78 -23 l46 -6 0 -45 0 -45 -35 2 c-19 0 -47
4 -61 8 -20 5 -33 1 -55 -18 -25 -22 -27 -27 -17 -50 7 -16 26 -30 50 -37 70
-22 70 -23 13 -170 -12 -30 -25 -67 -30 -81 -4 -14 -20 -45 -36 -69 l-28 -42
21 -18 c35 -28 100 -34 136 -12 29 16 34 27 53 112 49 220 51 223 158 213 75
-6 75 -6 88 21 17 38 1 58 -56 73 -71 18 -79 27 -58 70 19 39 9 39 172 12 102
-17 215 -28 290 -29 100 -1 120 -7 120 -36 0 -15 -9 -28 -27 -38 -16 -8 -41
-28 -57 -45 -17 -17 -35 -31 -41 -31 -6 0 -17 -8 -26 -17 -8 -10 -32 -31 -53
-48 -62 -49 -211 -186 -215 -199 -2 -6 -9 -14 -15 -18 -17 -11 143 3 219 19
39 8 95 19 125 23 30 4 69 13 85 20 39 16 275 50 345 50 52 0 59 -3 104 -45
43 -39 56 -45 92 -45 24 0 55 5 71 12 15 6 60 15 98 19 39 5 124 15 190 24 93
12 125 13 147 4 35 -14 36 -27 3 -34 -14 -3 -37 -8 -52 -11 -15 -3 -77 -11
-138 -19 -175 -20 -335 -78 -379 -138 -17 -23 -21 -48 -26 -136 -5 -108 3
-307 15 -368 6 -25 3 -33 -14 -42 -16 -9 -26 -8 -44 3 -29 20 -97 31 -97 17 0
-6 14 -11 30 -11 19 0 30 -5 30 -14 0 -8 9 -18 20 -21 28 -9 25 -23 -5 -31
-14 -3 -39 -19 -56 -35 -30 -28 -89 -41 -89 -19 0 12 -40 13 -59 1 -12 -8 -12
-12 -2 -25 8 -9 20 -16 27 -16 26 0 0 -37 -74 -104 -40 -37 -95 -80 -122 -97
-28 -17 -50 -33 -50 -35 0 -2 42 -4 93 -4 l92 0 80 78 c44 43 95 87 113 97 18
11 34 27 37 37 9 25 75 80 93 76 9 -2 23 -16 30 -31 16 -32 -22 -32 302 -7
214 16 767 7 855 -14 33 -7 81 -17 107 -20 25 -4 52 -14 58 -21 7 -9 30 -15
55 -15 51 0 174 -38 235 -73 26 -15 54 -42 66 -64 20 -34 26 -38 68 -41 25 -2
46 0 46 3 0 3 -14 35 -31 71 -28 61 -29 67 -13 78 16 12 15 13 -5 19 -28 7
-28 44 2 80 l22 28 28 -26 c27 -26 31 -26 155 -26 102 1 138 5 180 21 29 11
61 20 71 20 11 0 41 11 68 24 26 13 63 27 81 31 17 4 32 11 32 16 0 13 -100
11 -157 -2 -159 -37 -210 -53 -229 -70 -30 -28 -57 -24 -129 20 -25 15 -30 25
-31 57 -2 70 -3 75 -21 72 -12 -2 -19 4 -21 20 -2 12 1 22 7 22 5 0 15 17 22
38 7 20 19 48 28 61 9 15 15 44 14 78 -2 60 -18 86 -68 110 -42 20 -96 54
-133 83 -17 14 -43 33 -57 43 -50 36 -56 104 -10 125 25 11 131 0 164 -17 9
-5 34 -12 55 -16 22 -3 49 -13 60 -21 11 -8 34 -14 51 -14 17 0 39 -6 50 -14
11 -7 38 -16 60 -20 22 -4 54 -13 70 -20 101 -46 134 -57 161 -54 26 3 29 7
32 46 2 24 -4 66 -13 93 -10 30 -13 55 -8 60 5 5 46 -11 98 -37 50 -25 108
-52 130 -59 22 -8 67 -24 100 -36 56 -20 112 -33 260 -60 113 -21 165 25 165
144 0 30 -3 57 -7 61 -5 4 -9 17 -10 29 -2 12 -5 39 -9 59 -7 42 7 55 49 44
26 -6 48 -65 67 -176 5 -30 13 -75 19 -100 5 -25 14 -87 19 -139 11 -109 25
-130 71 -106 39 20 70 53 77 80 3 14 -3 60 -14 103 -77 286 -84 317 -75 331
15 24 176 51 252 42 169 -21 389 -8 546 31 181 45 272 86 307 138 21 30 47 51
83 63 17 6 -24 38 -63 49 -95 25 -272 134 -272 168 0 15 10 19 58 22 31 2 90
0 130 -4 93 -11 117 -1 109 48 -6 36 -46 109 -98 179 -48 66 -62 95 -50 109 7
8 46 16 97 19 47 3 91 10 97 15 7 5 23 12 37 15 41 9 149 51 230 90 92 43 110
72 110 177 0 57 -3 70 -17 74 -45 13 -154 37 -208 45 -107 18 -220 43 -229 51
-16 15 19 38 99 65 110 38 241 100 285 135 21 17 45 30 54 30 12 0 16 10 16
38 0 20 -4 42 -8 49 -10 16 -86 43 -147 53 -27 5 -63 15 -80 23 -16 8 -59 26
-95 41 -36 15 -75 35 -87 44 l-21 17 18 190 c10 105 26 244 35 310 9 66 25
185 36 265 10 80 26 181 34 225 8 44 21 123 30 175 45 277 58 343 82 425 14
50 33 119 43 155 10 36 30 107 46 159 26 88 26 98 15 165 -6 39 -16 105 -22
146 -19 146 -118 333 -320 600 -82 110 -213 206 -425 315 -60 31 -113 62 -119
68 -11 14 -90 57 -105 57 -5 0 -21 5 -36 10 -26 10 -26 11 -9 30 10 11 45 32
79 49 33 16 94 58 135 94 60 53 79 77 103 132 60 136 35 179 -292 488 -198
187 -237 218 -327 258 -37 17 -101 46 -141 65 -40 18 -135 52 -210 75 -75 23
-151 48 -169 55 -17 8 -39 14 -48 14 -10 0 -32 9 -50 20 -17 11 -47 21 -66 22
-58 5 -49 -26 34 -114 39 -42 82 -89 94 -103 l22 -26 12 23 c10 19 8 25 -15
44 -14 13 -26 31 -26 42 0 10 -5 23 -12 30 -9 9 -8 12 4 12 34 0 106 -39 127
-69 15 -21 31 -31 49 -31 20 0 23 -3 14 -12 -18 -18 -15 -27 17 -46 27 -16 31
-22 31 -41 0 -5 16 -26 35 -47 22 -24 35 -48 35 -65 0 -15 5 -31 11 -34 5 -4
21 -32 35 -63 14 -32 30 -61 37 -67 7 -5 27 -40 45 -77 31 -64 32 -70 21 -115
-21 -82 -38 -112 -78 -138 -22 -13 -42 -29 -46 -35 -31 -50 -32 79 -1 139 15
28 15 33 2 46 -8 8 -28 50 -44 92 -17 43 -38 92 -46 108 -9 17 -16 35 -16 41
0 6 -9 19 -20 29 -11 10 -20 26 -20 36 0 12 -5 16 -14 13 -10 -4 -16 3 -18 22
-2 15 -9 29 -15 32 -19 6 -16 -32 6 -59 38 -49 71 -256 57 -353 -9 -56 -30
-69 -54 -35 -18 25 -84 135 -95 159 -7 14 -44 72 -192 300 -119 185 -349 390
-435 390 -19 0 -62 -4 -95 -10 -177 -28 -232 -30 -297 -9 -70 22 -89 21 -263
-16 -60 -13 -121 -25 -135 -28 -14 -2 -81 -16 -150 -31 -69 -14 -177 -35 -240
-46 -112 -19 -333 -68 -435 -95 -62 -17 -127 -32 -180 -40 -22 -4 -78 -19
-125 -35 -47 -15 -132 -37 -190 -49 -58 -12 -113 -26 -122 -31 -10 -6 -26 -10
-36 -10 -10 0 -22 -4 -28 -8 -10 -10 -93 -39 -204 -73 -41 -12 -77 -25 -80
-29 -7 -8 -107 -47 -144 -55 -53 -11 -131 -75 -177 -144 -24 -36 -46 -68 -50
-71 -4 -3 -26 -43 -50 -90 -23 -47 -55 -103 -70 -125 -39 -58 -102 -187 -142
-290 -76 -195 -87 -223 -117 -317 -17 -54 -41 -110 -54 -124 l-22 -27 -33 34
c-77 80 -126 265 -110 419 11 110 43 229 79 289 29 50 29 51 10 63 -11 7 -20
21 -20 31 0 15 -3 16 -21 7 -11 -6 -22 -19 -25 -28 -16 -52 -40 -90 -90 -141
-73 -75 -174 -199 -174 -214 -1 -18 -30 24 -30 42 0 9 8 45 19 81 11 36 26
103 34 150 8 47 24 137 36 200 45 250 53 315 60 447 9 168 -3 342 -29 414
l-18 54 -224 3 -224 2 -23 -24z m316 -131 c-4 -8 -13 -15 -22 -15 -21 0 -19
28 3 32 22 5 26 2 19 -17z m-87 -95 c0 -11 -4 -20 -9 -20 -11 0 -22 26 -14 34
12 12 23 5 23 -14z m-460 -67 c0 -19 -4 -24 -16 -19 -9 3 -20 6 -25 6 -10 0 1
32 15 42 16 10 26 -1 26 -29z m57 -25 c-3 -8 -6 -5 -6 6 -1 11 2 17 5 13 3 -3
4 -12 1 -19z m466 -202 c3 -8 0 -17 -7 -19 -10 -4 -12 1 -9 14 6 23 9 24 16 5z
m-103 -77 c0 -6 -4 -7 -10 -4 -5 3 -10 11 -10 16 0 6 5 7 10 4 6 -3 10 -11 10
-16z m69 -51 c0 -28 -2 -30 -9 -13 -12 28 -12 45 0 45 6 0 10 -15 9 -32z
m1611 -66 c0 -5 -9 -17 -20 -27 -11 -10 -20 -24 -20 -32 0 -7 -6 -13 -12 -13
-7 0 -26 -13 -43 -28 -32 -29 -110 -80 -162 -105 -43 -20 -113 -79 -113 -94 0
-7 -4 -13 -9 -13 -19 0 -37 -54 -30 -88 16 -80 71 -95 215 -58 109 27 174 34
218 21 17 -4 61 -3 105 3 42 6 162 14 266 18 176 6 193 5 236 -14 62 -27 101
-69 88 -94 -6 -11 -21 -24 -35 -30 -26 -12 -50 -4 -106 36 -15 10 -33 16 -41
13 -8 -3 -20 0 -26 6 -17 17 -229 10 -311 -9 -36 -9 -108 -17 -160 -19 -52 -2
-148 -8 -212 -15 -65 -6 -121 -9 -126 -6 -4 2 -48 1 -98 -3 -120 -10 -197 -45
-214 -96 -6 -19 -15 -35 -20 -35 -5 0 -15 -3 -23 -6 -12 -4 -16 5 -19 40 -2
25 -1 46 2 46 3 0 19 28 34 63 16 34 35 75 43 91 7 16 13 40 13 53 0 38 35 97
77 128 21 16 45 36 53 45 30 31 105 88 126 94 12 4 34 17 48 29 15 13 49 31
76 41 27 10 60 26 72 36 13 10 32 20 43 23 34 8 85 7 85 -1z m-1530 -267 c0
-19 -4 -35 -10 -35 -5 0 -7 7 -4 15 4 8 1 21 -5 29 -6 7 -8 16 -4 19 15 15 23
5 23 -28z m-40 -94 c0 -6 -4 -13 -10 -16 -5 -3 -10 1 -10 9 0 9 5 16 10 16 6
0 10 -4 10 -9z m4675 -35 c0 -17 -54 -29 -70 -16 -8 7 -12 17 -9 22 7 12 79 6
79 -6z m-5761 -107 c-8 -14 -24 -10 -24 6 0 9 6 12 15 9 8 -4 12 -10 9 -15z
m1106 -14 c0 -14 -4 -25 -10 -25 -5 0 -10 11 -10 25 0 14 5 25 10 25 6 0 10
-11 10 -25z m-42 -18 c11 -13 5 -87 -7 -87 -3 0 -18 12 -34 25 l-27 24 22 26
c25 29 31 30 46 12z m2724 -71 c8 -7 43 -16 78 -19 36 -4 107 -20 158 -37 51
-16 108 -30 127 -30 36 0 44 -7 51 -45 7 -38 -23 -42 -161 -22 -16 3 -55 15
-85 27 -30 12 -77 26 -105 31 -168 30 -187 40 -167 84 10 21 18 25 51 25 22 0
46 -6 53 -14z m-2742 -35 c0 -11 -4 -23 -10 -26 -6 -4 -10 5 -10 19 0 14 5 26
10 26 6 0 10 -9 10 -19z m-140 -25 c0 4 5 3 11 -3 8 -8 7 -25 -6 -64 l-18 -52
-13 31 c-17 41 -8 108 12 91 8 -6 14 -8 14 -3z m-130 -15 c0 -21 -13 -41 -22
-35 -6 4 -5 10 3 15 11 7 11 9 1 9 -7 0 -10 5 -7 10 8 13 25 13 25 1z m300
-53 c0 -62 -9 -59 -15 5 -3 28 -1 47 5 47 6 0 10 -23 10 -52z m-106 25 c-5 -5
-12 -12 -15 -16 -3 -5 -9 -2 -12 7 -5 12 0 16 15 16 12 0 17 -3 12 -7z m1033
1 c-3 -3 -12 -4 -19 -1 -8 3 -5 6 6 6 11 1 17 -2 13 -5z m-1027 -38 c0 -3 -4
-8 -10 -11 -5 -3 -10 -1 -10 4 0 6 5 11 10 11 6 0 10 -2 10 -4z m-170 -47 c0
-17 -4 -28 -10 -24 -5 3 -8 19 -7 34 3 38 17 29 17 -10z m1166 14 c-2 -16 -5
-40 -5 -54 -1 -29 -20 -42 -42 -28 -12 7 -11 10 3 21 9 7 19 24 20 38 4 25 15
50 24 50 3 0 3 -12 0 -27z m-1071 -31 c13 -9 37 -63 32 -69 -3 -2 -16 2 -30 8
-20 9 -26 18 -24 40 2 30 5 33 22 21z m145 -36 c0 -8 -4 -18 -10 -21 -5 -3
-10 3 -10 14 0 12 5 21 10 21 6 0 10 -6 10 -14z m-490 -40 c0 -9 -30 -14 -35
-6 -4 6 3 10 14 10 12 0 21 -2 21 -4z m366 -42 c-3 -29 -32 -52 -47 -37 -16
16 8 63 30 63 15 0 19 -6 17 -26z m-49 -64 c-5 -31 -17 -36 -17 -7 0 15 4 27
10 27 5 0 9 -9 7 -20z m-96 -107 c13 -16 12 -17 -3 -4 -17 13 -22 21 -14 21 2
0 10 -8 17 -17z m129 -28 c0 -14 -4 -25 -10 -25 -11 0 -14 33 -3 43 11 11 13
8 13 -18z m4006 -75 c32 -58 56 -96 124 -199 30 -46 60 -93 67 -105 18 -30 33
-52 76 -106 20 -26 37 -53 37 -59 0 -7 16 -28 35 -49 37 -39 37 -39 105 -122
25 -30 47 -57 50 -60 3 -3 33 -37 67 -76 34 -39 100 -110 146 -157 83 -85 84
-87 92 -149 10 -82 9 -104 -3 -225 -11 -104 -32 -161 -70 -196 -26 -23 -52
-13 -117 47 -27 25 -55 46 -62 46 -16 0 -43 52 -43 82 0 13 27 59 60 103 53
71 108 168 124 217 8 26 -15 34 -33 11 -9 -11 -45 -44 -81 -74 -36 -30 -67
-56 -70 -59 -23 -24 -111 -90 -137 -104 -44 -22 -54 -21 -131 17 -221 111
-538 131 -681 45 -87 -52 -184 -147 -214 -207 -4 -9 -16 -29 -27 -46 -29 -44
-41 -75 -47 -117 -5 -35 8 -68 26 -68 8 0 52 73 104 169 73 136 159 209 252
217 31 3 68 9 81 15 37 13 157 11 265 -6 93 -14 163 -36 242 -76 79 -41 320
-296 412 -437 15 -23 40 -77 55 -120 18 -52 32 -78 44 -80 12 -3 42 21 87 67
38 39 74 71 79 71 5 0 12 -10 14 -22 3 -13 16 -84 31 -158 14 -74 30 -148 35
-165 4 -16 16 -57 25 -90 9 -33 25 -85 36 -115 34 -100 32 -124 -9 -176 -36
-44 -192 -203 -230 -234 -10 -8 -40 -35 -68 -59 -27 -24 -62 -56 -79 -70 -52
-47 -207 -165 -259 -198 -82 -53 -86 -56 -86 -78 0 -55 65 -93 214 -125 75
-17 125 -20 299 -18 131 0 212 -3 218 -9 7 -7 7 -23 -1 -49 -6 -22 -10 -55 -8
-74 3 -33 6 -36 50 -44 85 -17 216 13 356 81 51 25 96 42 100 39 8 -9 -16 -95
-34 -124 -9 -13 -30 -32 -48 -43 -18 -10 -40 -34 -49 -53 -21 -44 -116 -124
-192 -160 -33 -15 -68 -33 -79 -38 -84 -44 -247 -60 -254 -26 -2 10 6 30 17
44 33 42 28 89 -14 131 -30 30 -40 35 -67 29 -59 -12 -78 -32 -78 -81 0 -26 6
-50 16 -59 14 -15 14 -17 -1 -22 -35 -14 -185 69 -185 102 0 8 -2 14 -5 14
-17 0 -161 -164 -282 -321 -59 -76 -97 -107 -163 -133 -91 -36 -136 -54 -170
-65 -19 -7 -69 -24 -110 -38 -41 -14 -93 -34 -115 -43 -22 -10 -62 -25 -90
-35 -111 -39 -181 -68 -196 -81 -8 -8 -20 -14 -26 -14 -6 0 -13 -4 -15 -10 -3
-10 -64 -29 -185 -57 -40 -9 -70 -20 -67 -25 3 -4 -3 -7 -13 -6 -34 5 -133
-13 -139 -25 -4 -7 -4 -9 1 -5 4 4 14 3 21 -3 20 -16 125 -24 134 -10 7 12 90
39 147 48 28 4 34 1 42 -20 7 -17 5 -37 -4 -63 -13 -39 -14 -39 -77 -46 -34
-3 -78 -13 -97 -21 l-34 -14 66 -7 c99 -11 151 -60 90 -85 -21 -8 -42 -8 -78
-1 -27 6 -70 15 -95 20 -25 5 -59 13 -77 19 -17 5 -66 12 -109 16 -43 4 -92
14 -110 21 -21 9 -75 13 -165 12 -74 0 -148 0 -166 1 l-32 1 6 48 c5 48 5 49
-42 90 -26 23 -73 55 -105 70 -31 16 -81 44 -111 64 -87 56 -180 113 -234 143
-47 27 -163 104 -300 201 -59 42 -105 79 -149 119 -12 11 -38 32 -57 46 -94
72 -289 287 -289 319 0 3 -16 12 -36 19 -30 11 -38 11 -45 0 -5 -8 -9 -17 -9
-21 0 -5 -6 -8 -14 -8 -8 0 -27 -5 -43 -12 -15 -6 -38 -10 -51 -9 -13 2 -29
-3 -37 -9 -11 -9 -16 -7 -25 10 -13 24 -7 50 11 50 24 0 49 33 49 66 0 18 4
36 10 39 5 3 34 0 64 -7 40 -9 58 -18 65 -35 12 -27 24 -29 41 -8 7 8 18 15
24 15 7 0 46 35 88 78 74 76 138 177 121 192 -4 5 -45 10 -91 13 -45 2 -85 7
-89 11 -10 10 27 39 90 71 65 33 92 58 84 77 -2 7 -51 37 -108 66 -81 41 -112
63 -142 100 -51 64 -87 120 -87 137 0 8 -5 17 -10 20 -23 14 -93 214 -88 253
4 35 34 39 148 18 47 -9 102 -18 122 -21 39 -6 75 -44 49 -53 -6 -2 -43 -31
-81 -64 -48 -42 -70 -68 -70 -84 0 -31 19 -34 60 -10 51 31 138 64 198 76 29
5 80 17 115 26 122 32 222 0 259 -83 10 -23 23 -43 28 -43 15 0 50 52 50 73 0
31 42 87 70 93 43 10 153 55 200 81 25 14 67 38 94 52 83 44 92 50 110 70 23
25 14 51 -17 51 -39 0 -38 10 4 53 49 51 99 152 99 199 0 52 -27 120 -58 144
-41 33 -126 25 -192 -18 -47 -31 -90 -83 -90 -111 0 -7 -8 -25 -17 -42 -24
-44 -22 -139 6 -197 18 -37 31 -50 64 -63 l42 -17 -35 -19 c-100 -53 -323 -99
-516 -106 l-152 -5 -45 42 c-25 23 -51 56 -57 74 -6 18 -22 43 -35 56 -13 13
-30 39 -36 59 -12 36 -45 81 -61 81 -4 0 -15 -18 -24 -39 -13 -33 -26 -45 -81
-73 -36 -18 -87 -52 -112 -75 -25 -24 -49 -43 -53 -43 -12 0 -20 20 -21 53 0
33 47 83 449 478 66 64 132 132 149 150 51 58 120 142 145 179 61 89 114 141
169 166 31 14 64 29 73 35 45 24 45 7 4 -106 -44 -118 -59 -208 -53 -324 6
-122 15 -138 68 -119 40 14 122 63 199 119 30 22 78 56 105 75 28 19 77 54
110 79 75 55 115 76 127 69 6 -4 21 -31 34 -61 18 -40 29 -54 42 -51 24 5 26
40 7 99 -9 27 -15 56 -12 63 3 8 30 25 59 38 46 22 111 60 143 86 6 4 37 21
69 37 33 17 82 50 109 75 40 35 192 205 239 265 4 6 33 42 65 81 32 40 67 85
78 100 27 37 97 128 104 134 6 5 53 73 145 210 28 41 55 81 61 87 5 7 24 31
40 53 17 23 47 60 67 83 50 57 105 135 123 174 8 17 18 33 22 35 5 1 21 20 37
42 l29 38 24 -28 c13 -16 35 -49 49 -74z m-4935 48 c-10 -28 -51 -38 -51 -13
0 9 5 13 10 10 6 -3 10 -1 10 5 0 6 4 9 9 5 5 -3 12 -1 16 5 11 18 15 11 6
-12z m959 -24 c0 -8 -4 -12 -10 -9 -5 3 -10 10 -10 16 0 5 5 9 10 9 6 0 10 -7
10 -16z m-107 -7 c3 -8 2 -19 -3 -26 -5 -9 -9 -4 -12 13 -5 27 6 36 15 13z
m-788 -13 c14 -6 13 -8 -5 -21 -23 -16 -60 -9 -60 13 0 15 35 19 65 8z m211
-7 c3 -2 -10 -10 -27 -16 -25 -9 -34 -8 -40 1 -4 7 -6 16 -3 20 5 8 61 4 70
-5z m375 -5 c14 -6 15 -9 3 -20 -8 -7 -14 -8 -14 -2 0 5 -7 10 -15 10 -8 0
-15 5 -15 10 0 11 17 12 41 2z m2316 -34 c-3 -8 -6 -5 -6 6 -1 11 2 17 5 13 3
-3 4 -12 1 -19z m-58 -95 c-23 -32 -55 -71 -70 -87 -16 -16 -31 -45 -34 -67
-4 -22 -12 -39 -20 -39 -27 0 -74 27 -96 53 l-21 28 21 6 c11 3 21 9 21 13 0
4 15 14 33 21 17 7 57 37 87 65 30 29 69 63 85 77 28 24 30 24 33 7 2 -11 -16
-45 -39 -77z m-2319 25 c0 -13 -23 -5 -28 10 -2 7 2 10 12 6 9 -3 16 -11 16
-16z m6432 -12 c43 -44 124 -193 139 -254 7 -26 18 -59 25 -74 8 -15 14 -44
14 -65 0 -21 7 -63 16 -93 9 -30 22 -116 29 -190 7 -74 15 -144 18 -155 3 -11
1 -47 -4 -80 -5 -33 -10 -75 -11 -92 -2 -39 -29 -45 -45 -10 -10 21 -11 19
-23 -20 -15 -48 -33 -54 -76 -26 -19 12 -25 24 -23 47 1 17 -1 42 -4 56 -3 14
-8 99 -11 190 -6 185 -16 228 -71 299 -19 24 -35 50 -35 58 0 7 -4 13 -10 13
-5 0 -16 15 -24 34 -12 28 -21 35 -55 41 -44 7 -97 30 -107 46 -3 5 -38 25
-77 45 -40 19 -76 39 -81 45 -6 5 -16 9 -24 9 -7 0 -27 13 -45 30 -17 16 -44
32 -60 36 -16 3 -31 12 -34 20 -3 7 -20 16 -38 20 -21 4 -36 14 -43 30 -8 15
-17 22 -27 18 -8 -4 -17 1 -21 10 -3 9 -10 13 -15 10 -5 -3 -9 -1 -9 5 0 6 12
14 26 17 19 5 29 1 39 -13 10 -14 22 -18 43 -15 16 2 35 -2 43 -10 17 -17 100
-58 118 -58 7 0 19 -7 27 -15 22 -21 50 -19 67 6 12 17 19 19 35 10 11 -6 22
-7 26 -4 3 3 6 1 6 -5 0 -7 11 -12 24 -12 14 0 36 -13 52 -30 16 -16 49 -38
74 -49 25 -11 54 -29 64 -40 14 -16 23 -18 37 -10 22 11 26 60 7 81 -16 16
-48 108 -48 135 0 24 19 43 42 43 9 0 32 -15 50 -34z m-6952 14 c-8 -5 -22
-10 -30 -10 -13 0 -13 1 0 10 8 5 22 10 30 10 13 0 13 -1 0 -10z m-51 -37 c-6
-7 -15 -10 -20 -7 -13 8 -3 21 15 21 12 0 13 -4 5 -14z m1101 2 c0 -8 -4 -15
-10 -15 -5 0 -10 7 -10 15 0 8 5 15 10 15 6 0 10 -7 10 -15z m50 -15 c8 -5 11
-12 7 -16 -4 -4 -15 0 -24 9 -18 18 -8 23 17 7z m-481 -9 c7 -5 11 -14 7 -20
-8 -12 -56 6 -56 21 0 11 31 10 49 -1z m271 -35 c0 -13 3 -32 7 -41 5 -16 4
-15 -15 1 -22 18 -28 44 -15 57 13 14 23 6 23 -17z m-1010 -7 c0 -5 -7 -9 -15
-9 -15 0 -20 12 -9 23 8 8 24 -1 24 -14z m740 -13 c0 -3 -4 -8 -10 -11 -5 -3
-10 -1 -10 4 0 6 5 11 10 11 6 0 10 -2 10 -4z m215 -65 c7 -12 -41 -61 -58
-60 -8 0 -7 2 2 6 9 4 10 8 2 12 -7 5 -6 14 5 29 16 23 39 29 49 13z m-155
-21 c0 -5 -4 -10 -10 -10 -5 0 -10 5 -10 10 0 6 5 10 10 10 6 0 10 -4 10 -10z
m1915 -20 c11 -8 29 -31 39 -51 18 -35 18 -38 3 -54 -9 -9 -17 -20 -17 -25 0
-5 -12 -22 -26 -37 l-26 -28 -253 1 c-280 1 -442 10 -481 24 -14 6 -34 10 -44
10 -25 0 -74 19 -67 26 3 3 72 7 154 9 280 8 383 16 442 37 31 10 79 26 106
35 28 9 65 29 83 44 35 31 55 33 87 9z m-1541 -26 c9 -3 16 -15 16 -26 0 -15
-4 -18 -22 -12 -22 7 -38 21 -38 37 0 9 22 9 44 1z m-304 -14 c0 -5 -10 -10
-22 -10 -19 0 -20 2 -8 10 19 13 30 13 30 0z m89 -61 c-20 -13 -29 -11 -29 5
0 16 33 27 39 13 2 -5 -3 -13 -10 -18z m-145 2 c8 -12 -3 -41 -15 -41 -5 0 -9
11 -9 25 0 25 14 34 24 16z m71 -97 c-24 -24 -30 -9 -9 23 15 23 19 25 22 11
2 -10 -4 -25 -13 -34z m-80 -3 c3 -5 1 -12 -5 -16 -5 -3 -10 1 -10 9 0 18 6
21 15 7z m-5 -112 c0 -11 -4 -18 -10 -14 -5 3 -7 12 -3 20 7 21 13 19 13 -6z
m-70 -174 c0 -8 -4 -15 -10 -15 -5 0 -10 7 -10 15 0 8 5 15 10 15 6 0 10 -7
10 -15z m536 -59 c6 -17 -104 -347 -149 -449 -27 -60 -36 -70 -75 -87 -79 -35
-224 -20 -351 37 -86 39 -39 -55 73 -144 83 -67 210 -154 273 -188 29 -15 60
-36 69 -46 14 -16 14 -18 -6 -29 -12 -7 -59 -16 -104 -20 -44 -5 -112 -17
-151 -28 -38 -11 -97 -23 -130 -26 -33 -3 -132 -13 -221 -22 -166 -18 -234
-14 -234 11 0 9 -9 15 -21 15 -12 0 -19 5 -16 13 2 6 13 11 23 10 13 -1 29 15
53 52 18 30 43 65 55 78 11 13 34 43 51 68 16 24 33 46 36 49 3 3 16 25 30 50
13 25 34 58 46 73 13 16 23 34 23 41 0 6 13 27 30 46 16 19 29 42 30 49 0 31
55 94 97 112 23 10 66 42 95 71 119 119 216 180 403 257 60 25 64 25 71 7z
m-636 -193 c0 -10 -4 -24 -9 -31 -6 -10 -10 -8 -14 9 -3 12 -4 26 -1 31 9 14
24 9 24 -9z m-134 -138 c-21 -16 -32 -13 -21 4 3 6 14 11 23 11 15 -1 15 -2
-2 -15z m14 -99 c0 -3 -4 -8 -10 -11 -5 -3 -10 -1 -10 4 0 6 5 11 10 11 6 0
10 -2 10 -4z m-240 -76 c0 -5 -4 -10 -10 -10 -5 0 -10 5 -10 10 0 6 5 10 10
10 6 0 10 -4 10 -10z m787 -176 c-3 -3 -12 -4 -19 -1 -8 3 -5 6 6 6 11 1 17
-2 13 -5z m-760 -106 c-3 -8 -6 -5 -6 6 -1 11 2 17 5 13 3 -3 4 -12 1 -19z
m-227 -135 c0 -5 -5 -15 -10 -23 -8 -12 -10 -11 -10 8 0 12 5 22 10 22 6 0 10
-3 10 -7z m3190 -282 c0 -15 -5 -18 -22 -13 -19 5 -20 7 -5 10 9 2 17 8 17 13
0 5 2 9 5 9 3 0 5 -9 5 -19z m-80 -21 c24 -20 25 -21 6 -35 -11 -8 -25 -15
-32 -15 -20 0 -34 32 -23 52 12 23 18 22 49 -2z m-1465 -1263 l80 -12 -1 -30
c-1 -16 -3 -46 -3 -65 -1 -19 -1 -44 1 -55 11 -71 -174 35 -238 136 -13 21
-24 42 -24 45 0 7 39 3 185 -19z m1645 -1548 c67 -50 88 -139 48 -199 -38 -56
-102 -88 -176 -89 -35 -1 -72 4 -83 10 -31 16 -108 126 -115 165 -11 59 33
100 155 145 37 14 51 15 91 4 26 -7 62 -23 80 -36z m875 -88 c44 -19 104 -45
133 -58 l53 -24 -25 -22 c-49 -43 -178 -127 -195 -127 -5 0 -21 -10 -36 -22
-35 -28 -106 -29 -158 -4 -27 13 -45 33 -63 67 -26 52 -30 93 -13 152 23 84
153 101 304 38z"/>
<path d="M4481 3874 c-56 -71 -39 -186 49 -329 10 -16 19 -33 19 -37 2 -14
-42 -9 -58 6 -9 8 -22 12 -29 7 -8 -5 8 -28 51 -73 69 -73 122 -103 404 -229
36 -16 57 -33 70 -58 10 -19 26 -49 35 -67 10 -18 27 -38 38 -44 17 -9 22 -5
42 37 13 26 34 54 48 61 32 16 138 7 235 -20 39 -10 95 -26 125 -34 30 -9 66
-23 80 -32 25 -16 92 -52 97 -52 21 0 -51 116 -80 128 -13 6 -38 62 -31 73 13
22 63 30 195 30 179 1 185 7 82 85 -144 110 -193 154 -193 175 0 30 -28 35
-50 9 -11 -13 -20 -26 -20 -31 0 -4 -36 -56 -80 -115 -53 -72 -90 -112 -111
-121 -62 -26 -297 -6 -409 36 -30 11 -75 27 -99 36 -69 25 -194 88 -213 107
-10 10 -25 18 -35 18 -9 0 -14 2 -11 5 3 3 32 7 64 9 68 3 91 15 122 62 58 88
3 249 -111 327 -67 46 -97 57 -157 57 -40 0 -52 -4 -69 -26z m249 -259 c0 -19
-39 -55 -61 -55 -11 0 -18 10 -21 30 -4 26 -2 29 18 24 12 -3 25 -1 28 5 10
16 36 13 36 -4z"/>
<path d="M3514 2415 c-4 -8 -11 -15 -18 -15 -14 0 -96 -85 -96 -99 0 -6 -4
-11 -8 -11 -5 0 -21 -32 -36 -71 -20 -52 -26 -80 -21 -105 8 -47 25 -33 25 22
0 32 6 49 20 61 11 10 20 25 20 33 0 9 14 29 30 45 17 16 30 34 30 41 0 6 11
22 25 35 13 13 25 30 25 37 0 6 4 12 8 12 5 0 17 7 28 15 18 14 18 14 -4 15
-12 0 -25 -7 -28 -15z"/>
<path d="M4267 2393 c-15 -14 -6 -23 22 -23 18 0 31 -6 35 -16 4 -9 9 -14 12
-11 3 3 -2 17 -11 31 -16 25 -44 34 -58 19z"/>
<path d="M3670 2380 c14 -4 59 -9 100 -9 47 -1 70 -5 61 -10 -9 -6 20 -11 80
-15 310 -19 327 -18 314 17 -10 24 -30 27 -108 17 -40 -5 -97 -9 -127 -8 -30
0 -70 -3 -87 -7 -26 -6 -34 -4 -39 9 -5 13 -23 16 -113 15 -68 -1 -97 -4 -81
-9z"/>
<path d="M4347 2328 c-5 -15 9 -45 33 -73 23 -25 57 -82 71 -117 6 -16 15 -28
19 -28 4 0 11 -20 14 -44 4 -24 16 -54 26 -67 12 -13 20 -37 20 -60 0 -21 5
-41 11 -45 8 -4 9 10 6 47 -8 79 -32 172 -45 177 -7 2 -12 13 -12 25 0 12 -7
33 -15 47 -8 14 -19 35 -24 48 -6 12 -15 22 -20 22 -5 0 -13 9 -16 20 -7 21
-43 60 -56 60 -4 0 -9 -6 -12 -12z"/>
<path d="M6482 2270 c0 -14 2 -19 5 -12 2 6 2 18 0 25 -3 6 -5 1 -5 -13z"/>
<path d="M3305 2019 c-5 -45 -3 -73 7 -94 12 -28 13 -25 16 54 3 102 -13 131
-23 40z"/>
<path d="M3336 1863 c-8 -42 6 -89 24 -78 4 3 11 -1 14 -7 7 -18 -5 39 -19 87
l-12 40 -7 -42z"/>
<path d="M3540 1721 c0 -9 34 -21 63 -21 9 0 17 7 17 15 0 11 -11 15 -40 15
-22 0 -40 -4 -40 -9z"/>
<path d="M4275 1720 c-4 -6 8 -10 29 -10 19 0 38 5 41 10 4 6 -8 10 -29 10
-19 0 -38 -4 -41 -10z"/>
<path d="M3749 1689 c-8 -5 59 -9 170 -9 101 0 182 2 179 5 -9 10 -335 13
-349 4z"/>
<path d="M3990 1231 l-25 -7 28 -6 c19 -4 27 -1 27 8 0 8 -1 14 -2 13 -2 -1
-14 -4 -28 -8z"/>
<path d="M3765 1215 c-22 -8 -80 -17 -130 -19 -49 -2 -92 -5 -95 -5 -3 -1 8
-13 25 -27 20 -17 36 -23 50 -19 11 3 58 13 105 22 47 9 99 22 117 29 17 8 45
14 61 14 17 0 34 5 37 10 10 15 -124 11 -170 -5z"/>
<path d="M6420 5610 c0 -5 5 -10 11 -10 5 0 7 5 4 10 -3 6 -8 10 -11 10 -2 0
-4 -4 -4 -10z"/>
<path d="M5727 7294 c-3 -4 -1 -12 6 -20 25 -28 34 -40 40 -54 3 -9 6 -3 6 13
1 15 -3 27 -8 27 -5 0 -13 9 -16 20 -6 20 -16 25 -28 14z"/>
<path d="M270 7250 c-13 -8 -12 -10 3 -10 9 0 17 5 17 10 0 12 -1 12 -20 0z"/>
<path d="M410 7250 c0 -5 11 -10 25 -10 14 0 25 5 25 10 0 6 -11 10 -25 10
-14 0 -25 -4 -25 -10z"/>
<path d="M307 6906 c-6 -14 0 -26 13 -26 3 0 6 9 6 20 0 23 -11 27 -19 6z"/>
<path d="M697 6793 c-14 -13 -6 -23 17 -23 13 0 26 7 30 15 4 11 -1 15 -18 15
-12 0 -26 -3 -29 -7z"/>
<path d="M1617 6726 c-4 -10 -5 -21 -2 -24 9 -9 17 6 13 25 -3 17 -4 17 -11
-1z"/>
<path d="M393 6643 c9 -2 23 -2 30 0 6 3 -1 5 -18 5 -16 0 -22 -2 -12 -5z"/>
<path d="M873 6615 c0 -8 4 -15 9 -15 4 0 8 4 8 9 0 6 -4 12 -8 15 -5 3 -9 -1
-9 -9z"/>
<path d="M1017 2893 c-10 -9 -8 -53 2 -53 5 0 14 7 21 15 20 24 -2 59 -23 38z"/>
<path d="M977 2828 c-2 -7 -4 -17 -3 -21 0 -5 -7 -13 -16 -18 -10 -6 -18 -17
-18 -24 0 -8 -4 -15 -9 -15 -5 0 -20 -20 -32 -45 -14 -29 -29 -45 -41 -45 -13
0 -18 -8 -18 -28 0 -15 -7 -37 -15 -47 -8 -11 -33 -43 -55 -71 -22 -29 -40
-55 -40 -60 0 -4 -7 -16 -17 -26 -15 -17 -15 -18 6 -18 12 0 24 8 28 18 3 9
21 32 40 50 18 18 33 39 33 47 0 8 4 15 9 15 5 0 14 14 20 30 5 17 15 30 21
30 6 0 10 10 8 23 -2 15 4 25 20 32 12 5 22 14 22 18 0 5 9 20 20 34 11 14 20
34 20 45 0 11 4 17 9 13 12 -7 31 26 31 54 0 23 -15 28 -23 9z"/>
<path d="M371 1875 c-7 -19 -17 -35 -22 -35 -5 0 -9 -5 -9 -11 0 -6 -9 -22
-20 -36 -11 -14 -20 -34 -20 -43 0 -10 -7 -20 -15 -24 -16 -6 -21 -46 -6 -46
5 0 13 10 17 22 3 12 13 28 20 36 8 7 14 19 14 26 0 7 9 21 20 31 11 10 20 24
20 30 0 7 7 15 15 19 15 6 22 66 7 66 -4 0 -14 -16 -21 -35z"/>
<path d="M238 1653 c-3 -10 -2 -27 2 -38 6 -17 7 -17 13 5 3 13 2 30 -2 38 -7
12 -9 11 -13 -5z"/>
<path d="M137 1470 c-21 -38 -42 -72 -47 -75 -6 -3 -22 -32 -37 -63 -14 -31
-32 -61 -40 -65 -10 -6 -13 -90 -12 -445 0 -431 1 -436 18 -387 10 28 26 70
35 95 10 25 23 65 31 90 7 25 32 98 54 163 23 65 44 137 47 160 4 23 10 49 15
58 17 33 50 209 50 266 0 204 -2 223 -37 257 -26 27 -37 19 -77 -54z m40 -252
c-3 -8 -6 -5 -6 6 -1 11 2 17 5 13 3 -3 4 -12 1 -19z m0 -40 c-3 -8 -6 -5 -6
6 -1 11 2 17 5 13 3 -3 4 -12 1 -19z m-24 -55 c2 -5 0 -24 -5 -43 -8 -29 -11
-32 -19 -18 -5 10 -7 29 -3 43 6 24 19 33 27 18z m-61 -90 c2 -13 8 -56 13
-98 4 -37 1 -31 -11 23 -2 12 -11 22 -19 22 -15 0 -21 40 -8 53 9 9 23 9 25 0z
m-42 -128 c0 -14 0 -28 1 -32 0 -5 -7 -9 -15 -11 -12 -3 -16 5 -16 26 0 16 3
32 7 35 13 14 23 6 23 -18z m-10 -170 c0 -8 -4 -15 -10 -15 -5 0 -10 7 -10 15
0 8 5 15 10 15 6 0 10 -7 10 -15z"/>
<path d="M2572 540 c-20 -32 -15 -57 13 -62 29 -6 33 9 8 28 -15 11 -16 16 -5
33 7 12 9 21 4 21 -4 0 -13 -9 -20 -20z"/>
<path d="M2648 443 c7 -3 16 -2 19 1 4 3 -2 6 -13 5 -11 0 -14 -3 -6 -6z"/>
<path d="M2203 343 c9 -2 25 -2 35 0 9 3 1 5 -18 5 -19 0 -27 -2 -17 -5z"/>
<path d="M2517 306 c-3 -7 -23 -17 -44 -21 l-38 -8 34 -10 c28 -9 36 -8 46 6
7 9 19 17 28 17 10 0 14 5 11 15 -8 19 -30 20 -37 1z"/>
<path d="M4670 137 c0 -8 9 -24 20 -37 11 -13 20 -29 20 -37 0 -8 7 -13 18
-11 27 5 21 30 -17 66 -38 36 -41 37 -41 19z"/>
<path d="M2850 136 c0 -2 14 -6 30 -8 17 -3 30 -1 30 4 0 4 -13 8 -30 8 -16 0
-30 -2 -30 -4z"/>
<path d="M2956 116 c-23 -11 -25 -14 -11 -19 21 -9 60 -9 68 -1 9 9 -4 34 -17
33 -6 0 -24 -6 -40 -13z"/>
</g>
</svg>
